# xmcd
# 
# Track frame offsets:
#     150
#     29302
#     58982
#     87417
#     125667
#     153455
#     185572
#     216895
#     247562
#     272752
# 
# Disc length: 4040
# 
# Revision: 2
# Processed by: cddbd v1.5.2PL0 Copyright (c) Steve Scherf et al.
# Submitted via: BonkEnc v1.0.8
# 
DISCID=8c0fc60a
DTITLE=Larry Williams and Friends - The Beautiful Struggle
DYEAR=2001
DGENRE=Fusion
TTITLE0=Nefertiti In Blue And Green
TTITLE1=Invitation
TTITLE2=Soul Eyes 
TTITLE3=The Beautiful Struggle
TTITLE4=Grayheart
TTITLE5=Inner Urge
TTITLE6=Love Lost
TTITLE7=Calling You
TTITLE8='Round Midnight
TTITLE9=Straight, No Changes
EXTD=YEAR: 2001
EXTT0=
EXTT1=
EXTT2=
EXTT3=
EXTT4=
EXTT5=
EXTT6=
EXTT7=
EXTT8=
EXTT9=
PLAYORDER=
